# AST/ASF file generated using VICON BodyLanguage
# -----------------------------------------------
:version 1.10
:name VICON
:units
  mass 1.0
  length 0.45
  angle deg
:documentation
   .ast/.asf automatically generated from VICON data using
   VICON BodyBuilder and BodyLanguage model FoxedUp or BRILLIANT.MOD
:root
   order TX TY TZ RX RY RZ
   axis XYZ
   position 0 0 0  
   orientation 0 0 0 
:bonedata
  begin
     id 1 
     name lhipjoint
     direction 0.645422 -0.672597 0.361999 
     length 2.39934 
     axis 0 0 0  XYZ
  end
  begin
     id 2 
     name lfemur
     direction 0.34202 -0.939693 0  
     length 6.58112  
     axis 0 0 20  XYZ
    dof rx ry rz
    limits (-160.0 20.0)
           (-70.0 70.0)
           (-60.0 70.0)
  end
  begin
     id 3 
     name ltibia
     direction 0.34202 -0.939693 0   
     length 7.02673   
     axis 0 0 20   XYZ
    dof rx
    limits (-10.0 170.0)
  end
  begin
     id 4 
     name lfoot
     direction 0.0835106 -0.229444 0.969733   
     length 2.08772   
     axis -90 7.62852e-016 20   XYZ
    dof rx rz
    limits (-45.0 90.0)
           (-70.0 20.0)
  end
  begin
     id 5 
     name ltoes
     direction 1.5358e-011 -4.21925e-011 1   
     length 1.04844   
     axis -90 7.62852e-016 20   XYZ
    dof rx
    limits (-90.0 20.0)
  end
  begin
     id 6 
     name rhipjoint
     direction -0.644959 -0.672941 0.362185   
     length 2.39812  
     axis 0 0 0  XYZ 
  end
  begin
     id 7 
     name rfemur
     direction -0.34202 -0.939693 0   
     length 6.67015   
     axis 0 0 -20   XYZ
    dof rx ry rz
    limits (-160.0 20.0)
           (-70.0 70.0)
           (-70.0 60.0)
  end
  begin
     id 8 
     name rtibia
     direction -0.34202 -0.939693 0   
     length 7.35735   
     axis 0 0 -20   XYZ
    dof rx
    limits (-10.0 170.0)
 end
 begin
     id 9 
     name rfoot
     direction -0.0670769 -0.184292 0.98058   
     length 2.25469  
     axis -90 -7.62852e-016 -20   XYZ
    dof rx rz
    limits (-45.0 90.0)
           (-20.0 70.0)
  end
  begin
     id 10 
     name rtoes
     direction -1.53575e-011 -4.21908e-011 1   
     length 1.13399   
     axis -90 -7.62852e-016 -20   XYZ
    dof rx
    limits (-90.0 20.0)
  end
  begin
     id 11 
     name lowerback
     direction -0.0188328 0.993434 -0.112847   
     length 2.27656   
     axis 0 0 0   XYZ
    dof rx ry rz
    limits (-20.0 45.0)
           (-30.0 30.0)
           (-30.0 30.0)
  end
  begin
     id 12 
     name upperback
     direction 0.00983139 0.998968 -0.04435   
     length 2.28631   
     axis 0 0 0   XYZ
    dof rx ry rz
    limits (-20.0 45.0)
           (-30.0 30.0)
           (-30.0 30.0)
  end
  begin
     id 13 
     name thorax
     direction 0.0177718 0.999807 0.00833073   
     length 2.30999   
     axis 0 0 0   XYZ
    dof rx ry rz
    limits (-20.0 45.0)
           (-30.0 30.0)
           (-30.0 30.0)
  end
  begin
     id 14 
     name lowerneck
     direction -0.0835025 0.993181 0.0813558   
     length 1.39447   
     axis 0 0 0   XYZ
    dof rx ry rz
    limits (-20.0 45.0)
           (-30.0 30.0)
           (-30.0 30.0)
  end
  begin
     id 15 
     name upperneck
     direction 0.210059 0.976535 0.0474817   
     length 1.39882   
     axis 0 0 0   XYZ
    dof rx ry rz
    limits (-20.0 45.0)
           (-30.0 30.0)
           (-30.0 30.0)
  end
  begin
     id 16
     name head
     direction 0.0780891 0.996944 -0.00207154  
     length 1.41828  
     axis 0 0 0   XYZ
    dof rx ry rz
    limits (-20.0 45.0)
           (-30.0 30.0)
           (-30.0 30.0)
  end
  begin
     id 17 
     name lclavicle
     direction 0.982414 0.166355 -0.0847829  
     length 3.57922  
     axis 0 0 0   XYZ
    dof ry rz
    limits (-20.0 10.0)
           (0.0 20.0)
  end
  begin
     id 18 
     name lhumerus
     direction 1 -4.48975e-011 5.47647e-028   
     length 4.76405   
     axis -180 -30 -90   XYZ
    dof rx ry rz
    limits (-60.0 90.0)
           (-90.0 90.0)
           (-90.0 90.0)
  end
  begin
     id 19
     name lradius
     direction 1 -4.48949e-011 -8.32142e-027   
     length 3.13759   
     axis -180 -30 -90   XYZ
    dof rx
    limits (-10.0 170.0)
  end
  begin
     id 20
     name lwrist
     direction 1 -4.48978e-011 -1.32705e-026   
     length 1.56879   
     axis 9.60836e-015 90 90   XYZ
    dof ry
    limits (-180.0 0.0)
 end
  begin
     id 21 
     name lhand
     direction 1 -4.48975e-011 -2.65409e-026   
     length 0.732262   
     axis 1.69354e-014 90 90   XYZ
    dof rx rz
    limits (-90.0 90.0)
           (-45.0 45.0)
  end
  begin
     id 22 
     name lfingers
     direction 1 -4.48923e-011 -5.30819e-026   
     length 0.590368   
     axis 3.38708e-014 90 90   XYZ
    dof rx
    limits (0.0 90.0)
  end
  begin
     id 23
     name lthumb
     direction 0.707107 -6.34914e-011 0.707107   
     length 0.847654   
     axis -90 45 2.85299e-015   XYZ
    dof rx rz
    limits (-45.0 45.0)
           (-45.0 45.0)
  end
  begin
     id 24 
     name rclavicle
     direction -0.963658 0.245183 -0.106063   
     length 3.43472  
     axis 0 0 0   XYZ 
    dof ry rz
    limits (-10.0 20.0)
           (-20.0 0.0)
  end
  begin
     id 25 
     name rhumerus
     direction -1 -4.48963e-011 -1.64784e-027  
     length 5.10161   
     axis -180 30 90   XYZ
    dof rx ry rz
    limits (-90.0 60.0)
           (-90.0 90.0)
           (-90.0 90.0)
  end
  begin
     id 26 
     name rradius
     direction -1 -4.48969e-011 -2.87943e-027   
     length 3.23267   
     axis -180 30 90   XYZ
    dof rx
    limits (-10.0 170.0)
  end
  begin
     id 27 
     name rwrist
     direction -1 -4.48982e-011 -1.32705e-026   
     length 1.61633   
     axis 9.60836e-015 -90 -90   XYZ
    dof ry
    limits (-180.0 0.0)
  end
  begin
     id 28
     name rhand
     direction -1 -4.48963e-011 -2.65409e-026   
     length 0.702   
     axis 1.69354e-014 -90 -90   XYZ
    dof rx rz
    limits (-90.0 90.0)
           (-45.0 45.0)
  end
  begin
     id 29
     name rfingers
     direction -1 -4.48934e-011 -5.30819e-026   
     length 0.565971   
     axis 3.38708e-014 -90 -90   XYZ
    dof rx
    limits (0.0 90.0)
  end
  begin
     id 30
     name rthumb
     direction -0.707107 -6.34908e-011 0.707107   
     length 0.812624   
     axis -90 -45 -2.85299e-015   XYZ
    dof rx rz
    limits (-45.0 45.0)
           (-45.0 45.0)
  end
:hierarchy
  begin
    root lhipjoint rhipjoint lowerback
    lhipjoint lfemur
    lfemur ltibia
    ltibia lfoot
    lfoot ltoes
    rhipjoint rfemur
    rfemur rtibia
    rtibia rfoot
    rfoot rtoes
    lowerback upperback
    upperback thorax
    thorax lowerneck lclavicle rclavicle
    lowerneck upperneck
    upperneck head
    lclavicle lhumerus
    lhumerus lradius
    lradius lwrist
    lwrist lhand lthumb
    lhand lfingers
    rclavicle rhumerus
    rhumerus rradius
    rradius rwrist
    rwrist rhand rthumb
    rhand rfingers
  end

#!OML:ASF \\sashay\E\basketball\basketball\Project 1\Capture day 1\Session 1\Subject.ASF
:FULLY-SPECIFIED
:DEGREES
161
root 19.9197 14.5965 16.4548 -376.903 73.6973 -398.248
lowerback 25.1116 3.37771 7.43801
upperback 10.0046 7.09168 5.91482
thorax -2.70145 3.81382 0.320431
lowerneck -7.14194 -5.1327 -2.84371
upperneck -27.3595 -1.90021 18.3786
head -6.79134 -1.43676 6.69295
rclavicle 5.56597e-014 4.85035e-014
rhumerus 20.9523 -28.4345 -79.5142
rradius 33.3318
rwrist 6.26904
rhand -22.2976 34.8813
rfingers 7.12502
rthumb 4.12144 4.94138
lclavicle 5.56597e-014 4.85035e-014
lhumerus -61.2513 -19.7126 119.583
lradius 38.5268
lwrist 15.8483
lhand -15.4808 26.8967
lfingers 7.12502
lthumb 10.701 56.6042
rfemur -4.09618 -5.28873 10.6354
rtibia 34.7889
rfoot -9.87471 12.8471
rtoes -53.6166
lfemur -71.8151 3.15276 -31.7396
ltibia 84.8706
lfoot -5.62023 -3.38469
ltoes -23.6046
162
root 20.5358 14.674 16.6462 -379.779 75.1339 -400.757
lowerback 24.4388 3.44096 6.64256
upperback 10.3185 6.94961 6.07675
thorax -2.15526 3.76338 1.03378
lowerneck -7.99805 -5.74158 -2.75083
upperneck -26.4405 -2.83123 18.985
head -6.2083 -1.87856 6.81617
rclavicle 5.725e-014 4.05521e-014
rhumerus 18.5288 -28.4454 -77.1302
rradius 35.1985
rwrist 4.9748
rhand -22.8576 36.9426
rfingers 7.12502
rthumb 3.58063 6.99291
lclavicle 5.725e-014 4.05521e-014
lhumerus -62.3591 -20.401 120.449
lradius 39.4583
lwrist 17.8093
lhand -14.8643 27.8916
lfingers 7.12502
lthumb 11.2956 57.5675
rfemur 1.06273 -4.40912 11.0548
rtibia 30.5006
rfoot -6.16594 13.2024
rtoes -52.532
lfemur -71.8069 3.26252 -32.4951
ltibia 79.3092
lfoot -4.03613 -4.64796
ltoes -19.485
163
root 21.155 14.742 16.8397 -383.245 76.6379 -403.564
lowerback 24.2345 3.54282 5.4186
upperback 10.553 6.85275 6.51483
thorax -2.00515 3.70254 2.22646
lowerneck -7.85553 -6.00806 -2.71879
upperneck -26.247 -3.34537 18.6598
head -6.12115 -2.12354 6.68927
rclavicle 7.79236e-014 5.40694e-014
rhumerus 15.4921 -28.2294 -74.249
rradius 37.7294
rwrist 3.1039
rhand -23.8661 37.3277
rfingers 7.12502
rthumb 2.60664 7.36391
lclavicle 7.79236e-014 5.40694e-014
lhumerus -63.5473 -20.7069 121.601
lradius 40.2681
lwrist 19.2203
lhand -13.612 28.5888
lfingers 7.12502
lthumb 12.5032 58.1948
rfemur 6.62363 -3.26527 11.7175
rtibia 26.3096
rfoot -3.66398 10.8866
rtoes -53.3087
lfemur -71.1272 3.5479 -33.4708
ltibia 73.5671
lfoot -2.34282 -5.98926
ltoes -16.4827
164
root 21.7639 14.7798 17.0414 -386.829 77.5324 -406.711
lowerback 24.0508 3.75664 4.48973
upperback 10.5697 6.93212 6.60216
thorax -2.02107 3.72224 2.82545
lowerneck -8.94146 -5.47252 -1.0963
upperneck -25.1846 -3.02339 17.2633
head -5.75055 -1.92641 5.84545
rclavicle -4.13472e-014 -8.74653e-015
rhumerus 12.4073 -28.6091 -72.3377
rradius 40.3599
rwrist 1.10597
rhand -24.3222 37.0363
rfingers 7.12502
rthumb 2.16617 7.0676
lclavicle -4.13472e-014 -8.74653e-015
lhumerus -65.1596 -21.1809 122.222
lradius 41.27
lwrist 20.274
lhand -11.636 28.6601
lfingers 7.12502
lthumb 14.4078 58.14
rfemur 12.0875 -1.85788 12.9512
rtibia 21.9773
rfoot -0.753868 8.53645
rtoes -52.7229
lfemur -70.7472 4.45343 -34.3911
ltibia 67.8801
lfoot 0.298941 -7.475
ltoes -15.2231
165
root 22.3835 14.8037 17.2305 -392.433 78.1465 -412.107
lowerback 23.4942 3.73412 4.28992
upperback 10.5272 6.8249 6.54354
thorax -1.80974 3.67306 2.93684
lowerneck -7.10961 -5.70822 -2.39767
upperneck -25.7457 -2.89029 19.0006
head -6.13716 -1.95717 6.73997
rclavicle 3.97569e-014 6.36111e-015
rhumerus 9.92179 -29.4685 -71.2728
rradius 42.0966
rwrist -0.665587
rhand -24.9265 37.3997
rfingers 7.12502
rthumb 1.58254 7.42582
lclavicle 3.97569e-014 6.36111e-015
lhumerus -66.4792 -21.7454 122.597
lradius 42.0899
lwrist 21.1329
lhand -9.8554 28.7208
lfingers 7.12502
lthumb 16.1229 58.0702
rfemur 17.5402 -0.60163 14.8303
rtibia 16.981
rfoot 1.84238 6.73777
rtoes -52.7292
lfemur -70.4464 5.31745 -35.0054
ltibia 62.2047
lfoot 2.0242 -8.1736
ltoes -18.1807
166
root 23.0126 14.8393 17.4006 -399.621 78.3473 -419.079
lowerback 22.7312 3.60466 4.39274
upperback 10.5755 6.64377 6.66665
thorax -1.3807 3.60079 3.11377
lowerneck -6.12088 -6.21262 -3.86421
upperneck -25.4312 -3.30729 21.0526
head -6.00555 -2.21245 7.72531
rclavicle -4.77083e-014 -4.53229e-014
rhumerus 6.94983 -29.6426 -69.8816
rradius 45.226
rwrist -5.91222
rhand -24.7864 37.9518
rfingers 7.12502
rthumb 1.71788 7.97893
lclavicle -4.77083e-014 -4.53229e-014
lhumerus -67.5738 -21.9218 122.889
lradius 42.9287
lwrist 21.1874
lhand -8.33112 28.7202
lfingers 7.12502
lthumb 17.5902 57.9445
rfemur 23.4416 0.541801 17.1551
rtibia 10.8283
rfoot 5.12245 5.86342
rtoes -52.5468
lfemur -69.7393 6.20439 -35.1869
ltibia 56.6891
lfoot 3.68917 -8.68568
ltoes -18.8366
167
root 23.6359 14.8507 17.5659 -407.451 78.0159 -426.712
lowerback 21.8493 3.43264 4.82987
upperback 10.6595 6.46289 6.84865
thorax -0.820185 3.54159 3.17769
lowerneck -5.05278 -6.20521 -3.47989
upperneck -25.7995 -3.31589 20.7047
head -6.3435 -2.30434 7.59313
rclavicle 4.92986e-014 -5.56597e-015
rhumerus 4.76598 -30.2097 -68.9172
rradius 47.9094
rwrist -10.3029
rhand -24.2963 36.4533
rfingers 7.12502
rthumb 2.19123 6.4848
lclavicle 4.92986e-014 -5.56597e-015
lhumerus -68.6602 -22.1404 123.232
lradius 43.7932
lwrist 21.0404
lhand -6.78629 28.7303
lfingers 7.12502
lthumb 19.0763 57.8148
rfemur 31.9281 -0.876009 18.6015
rtibia 9.54166e-015
rfoot 9.29239 8.57137
rtoes -51.9645
lfemur -69.2292 7.25171 -35.2105
ltibia 51.3296
lfoot 5.35113 -8.85824
ltoes -19.7345
168
root 24.2704 14.8734 17.7003 -414.866 77.6048 -433.926
lowerback 20.9298 3.09267 5.51779
upperback 10.7154 6.08727 6.90779
thorax -0.223619 3.39742 3.01141
lowerneck -5.04856 -6.35213 -3.62876
upperneck -24.7083 -3.6919 21.1061
head -5.91537 -2.47957 7.6891
rclavicle -8.18993e-014 -3.89618e-014
rhumerus 2.49308 -31.1983 -68.0305
rradius 50.4699
rwrist -14.8425
rhand -21.4788 37.0577
rfingers 7.12502
rthumb 4.91203 7.13464
lclavicle -8.18993e-014 -3.89618e-014
lhumerus -69.5746 -22.2159 123.429
lradius 44.5649
lwrist 20.8786
lhand -4.99718 28.4413
lfingers 7.12502
lthumb 20.7961 57.3468
rfemur 34.487 -2.36334 19.8661
rtibia 3.81667e-014
rfoot 8.67616 9.16249
rtoes -51.8754
lfemur -68.2194 7.82848 -34.9571
ltibia 46.295
lfoot 6.29635 -8.64152
ltoes -20.73
169
root 24.9037 14.8741 17.8313 -420.137 77.0902 -438.834
lowerback 20.1461 2.85524 6.03003
upperback 10.7455 5.79911 6.85984
thorax 0.266651 3.28889 2.79253
lowerneck -4.14334 -6.28488 -3.50204
upperneck -24.3584 -3.6833 21.1178
head -5.96988 -2.53572 7.67999
rclavicle 8.66701e-014 4.69132e-014
rhumerus 0.54676 -32.2161 -67.159
rradius 52.6101
rwrist -16.4323
rhand -19.3719 35.1637
rfingers 7.12502
rthumb 6.94612 5.29767
lclavicle 8.66701e-014 4.69132e-014
lhumerus -70.3759 -22.1748 123.569
lradius 45.0896
lwrist 20.4566
lhand -2.91544 27.7862
lfingers 7.12502
lthumb 22.7951 56.4593
rfemur 37.2523 -3.54514 20.8049
rtibia -4.45278e-014
rfoot 8.29264 9.53351
rtoes -52.0559
lfemur -67.0636 8.59555 -34.9403
ltibia 41.7067
lfoot 7.12612 -6.99508
ltoes -18.5049
170
root 25.5312 14.8497 17.9605 -424.325 76.5377 -442.723
lowerback 19.408 2.66696 6.426
upperback 10.666 5.54845 6.82048
thorax 0.599856 3.1871 2.62489
lowerneck -3.42168 -6.39821 -3.71084
upperneck -23.7471 -4.00392 21.1912
head -5.84632 -2.71613 7.72999
rclavicle 7.4743e-014 1.19271e-013
rhumerus -1.84572 -32.6825 -65.8701
rradius 55.0479
rwrist -18.2019
rhand -20.2697 38.1369
rfingers 7.12502
rthumb 6.07941 8.24408
lclavicle 7.4743e-014 1.19271e-013
lhumerus -71.1491 -22.0959 123.948
lradius 45.3637
lwrist 19.8936
lhand -1.30305 27.0351
lfingers 7.12502
lthumb 24.3417 55.5093
rfemur 40.0129 -4.64102 21.6302
rtibia 8.26944e-014
rfoot 8.68092 9.67282
rtoes -51.7416
lfemur -66.3129 9.52955 -35.3704
ltibia 37.9159
lfoot 8.06089 -6.67773
ltoes -27.1506
